<svg aria-hidden="true" style="position: absolute; width: 0; height: 0; overflow: hidden;" version="1.1" xmlns="http://www.w3.org/2000/svg" xmlns:xlink="http://www.w3.org/1999/xlink">
<defs>
<symbol id="icon-telegram" viewBox="0 0 32 32">
<path  d="M27.553 4.956l-23.64 9.116c-1.613 0.648-1.604 1.548-0.296 1.949l6.069 1.893 14.043-8.86c0.664-0.404 1.271-0.187 0.772 0.256l-11.377 10.269-0.419 6.256c0.613 0 0.884-0.281 1.228-0.613l2.948-2.867 6.132 4.529c1.131 0.623 1.943 0.303 2.224-1.047l4.025-18.971c0.412-1.652-0.631-2.4-1.709-1.912z"></path>
</symbol>
<symbol id="icon-viber" viewBox="0 0 34 32">
<path  d="M18.146 3.368c-0.48 0-0.869 0.37-0.869 0.826s0.389 0.826 0.869 0.826c5.761 0 10.431 4.437 10.431 9.91 0 0.456 0.389 0.826 0.869 0.826s0.869-0.37 0.869-0.826c0-6.385-5.449-11.561-12.17-11.561z"></path>
<path  d="M7.019 6.063c0.493-0.241 1.361-0.363 1.858 0.078 0.622 0.55 1.58 1.515 2.238 2.357s1.58 2.124 1.712 2.408c0.132 0.285 0.278 1.295-0.38 1.903-0.527 0.487-1.214 0.919-1.492 1.075-0.258 0.216-0.682 0.849-0.307 1.657 0.468 1.010 1.478 2.991 3.219 4.467s3.584 2.253 4.74 2.499c0.073 0 0.168 0.017 0.277 0.036 0.392 0.069 0.975 0.172 1.478-0.334 0.515-0.518 0.985-1.062 1.156-1.269 0.268-0.276 1.047-0.746 2.019-0.414 1.214 0.414 2.604 1.321 3.233 1.748 0.503 0.342 1.624 1.152 2.121 1.515 0.302 0.22 0.808 0.875 0.41 1.735-0.498 1.075-2.619 3.444-4.521 3.444-0.702 0-7.491-1.826-13.489-6.979-3.831-3.292-7.13-9.004-7.695-10.929-0.215-0.458-0.468-1.585 0.234-2.434s1.492-1.735 3.189-2.564z"></path>
<path  d="M18.146 9.975c-0.48 0-0.869 0.37-0.869 0.826s0.389 0.826 0.869 0.826c1.92 0 3.477 1.479 3.477 3.303 0 0.456 0.389 0.826 0.869 0.826s0.869-0.37 0.869-0.826c0-2.736-2.335-4.955-5.216-4.955z"></path>
<path  d="M17.277 7.497c0-0.456 0.389-0.826 0.869-0.826 4.801 0 8.693 3.697 8.693 8.258 0 0.456-0.389 0.826-0.869 0.826s-0.869-0.37-0.869-0.826c0-3.649-3.113-6.606-6.954-6.606-0.48 0-0.869-0.37-0.869-0.826z"></path>
</symbol>
<symbol id="icon-whatsapp" viewBox="0 0 32 32">
<path  d="M25.070 6.921c-1.181-1.183-2.586-2.121-4.133-2.76s-3.207-0.965-4.883-0.961c-7.025 0-12.745 5.691-12.747 12.685 0 2.236 0.586 4.417 1.701 6.342l-1.807 6.572 6.757-1.765c1.869 1.013 3.963 1.544 6.091 1.544h0.006c7.024 0 12.743-5.691 12.746-12.685 0.005-1.667-0.322-3.318-0.963-4.858s-1.581-2.939-2.768-4.115zM16.054 26.439h-0.004c-1.898 0-3.76-0.508-5.393-1.471l-0.386-0.229-4.010 1.047 1.069-3.89-0.251-0.399c-1.061-1.681-1.623-3.626-1.62-5.611 0.003-5.814 4.755-10.543 10.599-10.543 1.392-0.003 2.77 0.269 4.056 0.799s2.453 1.31 3.434 2.293c0.986 0.978 1.768 2.141 2.3 3.421s0.804 2.653 0.8 4.039c-0.003 5.813-4.755 10.545-10.594 10.545zM21.865 18.541c-0.32-0.16-1.884-0.926-2.177-1.032-0.291-0.106-0.503-0.158-0.716 0.158s-0.824 1.030-1.009 1.242c-0.186 0.212-0.372 0.237-0.69 0.079s-1.345-0.493-2.561-1.573c-0.947-0.841-1.586-1.878-1.772-2.196s-0.020-0.489 0.141-0.647c0.143-0.141 0.318-0.37 0.477-0.555s0.212-0.317 0.318-0.528c0.107-0.212 0.054-0.397-0.027-0.555-0.079-0.16-0.717-1.72-0.983-2.354-0.257-0.615-0.52-0.533-0.716-0.541-0.203-0.008-0.406-0.012-0.609-0.011-0.162 0.004-0.32 0.041-0.467 0.109s-0.277 0.166-0.384 0.286c-0.292 0.318-1.115 1.084-1.115 2.644s1.142 3.068 1.301 3.28c0.159 0.212 2.246 3.413 5.441 4.786 0.761 0.326 1.355 0.521 1.816 0.668 0.762 0.242 1.457 0.206 2.006 0.126 0.612-0.090 1.884-0.766 2.15-1.506s0.265-1.375 0.186-1.508c-0.080-0.133-0.294-0.213-0.611-0.372z"></path>
</symbol>
<symbol id="icon-play_arrow" viewBox="0 0 32 32">
<path fill="#fff" style="fill: var(--color1, #fff)" d="M10.666 6.667v18.667l14.667-9.333-14.667-9.333z"></path>
</symbol>
</defs>
</svg>
